<?xml version="1.0" encoding="UTF-8"?>
<svg version="1.1" viewBox="0 0 2048 1009" width="629" height="310" xmlns="http://www.w3.org/2000/svg">
<path transform="translate(0)" d="m0 0h2048v1009h-2048z" fill="#FDFDFD"/>
<path transform="translate(1778,348)" d="m0 0h8l7 11 4 7 2 2-1-7 2-7 2-1h91v8l8-8h80l3 1 1 5v22l-2 7-26 13-7 8-13 21-12 19-2 7 10 21 10 19 10 20 10 19 9 17 9 12 14 14 14 11 3 3-3 9-10 18-5 6-7-1-36-18-16-7-33-10-5-5-2-11-1 13-4 5-2 1h-75l-11-2-3-7v-23l3-5 16-8 1-8v-91l-1-52-16-10-3-3-7 1-11 8-4 4-1 20-1 170-3 5-3 1h-46l-5-3-15-28-4-5h-4l-1 2 1 9 4 9-1 3-13 10-9 9-13 17-7 11-11 22-4 6-4-2-10-8-11-10-5-5-1-3 5-24 1-7v-199l-16-9-1-5 1-6v-22l8-1 68-1 5 4 9 14 10 19v2h2v-8l1-4-4 1v-2h3l1-19 2-6 34-1 24-2z" fill="#2361AA"/>
<path transform="translate(535,491)" d="m0 0 11 1 28 13 88 44 3 2-2 9-6 15-12 23-10 15-14 19-12 13-5 6-8 7-9 9-17 13-10 7-19 11-16 8-21 9-23 7-27 5-14 2-14 1h-33l-18-2-28-6-23-7-24-10-21-11-20-13-13-10-24-22-11-12-9-11-10-14v-2l5 2 86 43 15 6 9 3 14 2 5 1h19l21-4 13-5 11-6 11-8 10-9 9-10 7-10 7-14 5-15 3-10 5 4 7 8 9 10 14 11 15 9 33 16 13 7 4-1 10-21 1-3v-10l-7-11-6-7-17-12-7-8-3-7v-13l1-2h3l3 7 6 7 16 10 7 6 5 6-2-9-6-11-11-11-15-11-7-10-1-3v-16l5-10 8-7z" fill="#2361AA"/>
<path transform="translate(757,350)" d="m0 0h9l3 1 45 1 19 3 17 5 15 8 12 9 14 13 10 13 8 15 6 16 5 24v29l-3 15-5 16-5 11-7 13-8 10-8 9-11 9-15 10-15 6-12 3-19 3-12 1h-62l-9-1-3-3-2-9v-20l2-5 8-4 9-3 1-61v-90l-10-7-7-5-1-6v-20l2-5 2-1 22-1z" fill="#F8FBFD"/>
<path transform="translate(1021,349)" d="m0 0h18l17 3 11 4 10 6 12 11 9 10 7 10 7 12 7 19 4 18 2 21v21l-3 24-6 23-9 19-9 13-12 14-12 9-15 7-10 3h-35l-15-4-19-10-11-10-10-14-10-19-8-24-5-24-1-9v-14l2-20 5-23 6-18 8-15 10-13 9-10 11-9 15-7z" fill="#FAFBFD"/>
<path transform="translate(1224,349)" d="m0 0h20l17 4 12 6 13 10 7 7 10 14 8 15 1 3v7l-4 7-14 11-11 9-8 8-8 7-9 8h-2l9 11 15 16 7 8 16 17 12 14 2 6-8 16-7 10-9 10-9 8-14 8-14 5-9 2h-31l-15-5-10-5-12-9-10-11-12-19-9-19-5-15-4-23v-29l3-23 5-19 5-13 8-15 9-12 15-15 11-7 12-5z" fill="#2361AA"/>
<path transform="translate(406,196)" d="m0 0 30 1 29 4 25 6 21 7 24 11 15 8 18 12 14 11 13 11 8 7 9 9 9 11 14 18 2 3v3l-6-2-33-17-28-14-19-10-19-9-15-4-11-2h-25l-17 4-16 6-13 7-12 9-13 13-9 14-8 17-5 16-2 6-5-4-8-11-11-11-13-10-15-9-30-15v-1l11-1 11-3 18-11 13-5 13-6 25-12 14-6 16-8 15-8 10-5 5-4 1-3-9-1-24-3h-29l-22 3-24 5-19 6-24 10-21 11-20 14-15 13-12 11-5 5-12 13-14 20-4 8v2l5 1v-2l8-4 7-1 10-4 5-1v-2l23-5 6-2 3 1v2h2v18l3 14 6 12 5 6v2l4 2 7 6 11 8 7 8 3 7v12l-3 8-7 8-10 5-9 1-10-3-23-11-62-31-17-8-12-7-1-3 6-17 8-16 10-18 8-12 10-13 11-13 22-22 17-13 10-7 16-10 16-9 27-11 24-8 25-5 16-2z" fill="#2361AA"/>
<path transform="translate(1343,352)" d="m0 0h67l5 1 1 2 1 102 1 67h16l10-2 5-4 6-10 8-22 3-1 25 12 13 7-1 7-15 45-10 29-3 7-2 1-25 1h-103l-8-1-2-4-2-16v-3l-1-8v-9l11-9 1-71v-32l-1-38-6-7-8-6v-7l2-12 6-18z" fill="#F7FAFD"/>
<path transform="translate(1770,369)" d="m0 0h8l-1 4-10 9-6 7-2 4-1 52v127l-1 1h-28l-10-19-12-23-12-24-20-38-1-1v92l1 8 3 4-1 3-5 4h-2v2h-2l-2 4-9 9-10 13-7 10-4 7-5 1-1-7 3-14 2-26v-185l-4-8-7-6-1-6 45-1 8 16 17 33 14 27 13 26 1 1 1-102z" fill="#F9FBFD"/>
<path transform="translate(1496,353)" d="m0 0h89l1 5v189l-1 26-2 14-3 5-15 1-73 1-1-40 8-3 12-3v-151l-11-7-5-3-1-2-1-16 1-12z" fill="#2361AA"/>
<path transform="translate(1860,372)" d="m0 0h14v62h2l2-6 17-29 13-22 3-4h56v3l-9 4-10 6-10 10-14 22-11 18-10 16 1 6 8 15 10 21 11 20 22 44 10 14 9 10 12 11 3 2v5l-1 1-7-1-16-8-17-8-20-7-10-3-9-27-8-16-10-19-11-21v-2l-3 1-2 3-1 80h-57l-2-2 5-3 9-4 6-5 1-4v-162l-4-8-7-6-8-5v-1z" fill="#F7FAFD"/>
<path transform="translate(757,350)" d="m0 0h9l3 1 45 1 19 3 17 5 15 8 12 9 14 13 10 13 8 15 6 16 5 24v29l-3 15-5 16-5 11-7 13-8 10-8 9-11 9-15 10-15 6-12 3-19 3-12 1h-62l-9-1-3-3-2-9v-20l2-5 8-4 9-3 1-61v-90l-10-7-7-5-1-6v-20l2-5 2-1 22-1zm30 22-44 1 4 4 10 7 4 7 1 5v156l-2 8-8 6-10 4v3h78l17-4 13-5 11-6 10-8 10-10 8-13 5-11 5-18 2-22v-13l-3-19-5-16-9-17-9-11-11-10-13-8-15-6-13-3-14-1z" fill="#2361AA"/>
<path transform="translate(1223,369)" d="m0 0h22l12 3 11 6 10 9 8 11 7 11-1 5-10 8-12 9-14 11-5 1v-7l3-12-1-10-4-8-7-6-4-1h-9l-10 5-6 7-7 14-4 15-2 13-1 13v19l3 25 4 14 6 12 5 6 8 4 8 1 8-3 8-9 3-8 1-6-1-16-4-9 2-5 4 1 13 13 7 8 2 4h2l7 8 10 11v5l-10 15-10 9-17 9-14 3h-22l-14-4-10-5-9-7-9-9-9-15-7-19-4-20-1-8v-36l3-18 6-20 9-17 8-10 11-10 14-7z" fill="#FAFBFD"/>
<path transform="translate(1021,349)" d="m0 0h18l17 3 11 4 10 6 12 11 9 10 7 10 7 12 7 19 4 18 2 21v21l-3 24-6 23-9 19-9 13-12 14-12 9-15 7-10 3h-35l-15-4-19-10-11-10-10-14-10-19-8-24-5-24-1-9v-14l2-20 5-23 6-18 8-15 10-13 9-10 11-9 15-7zm-2 20-13 3-13 7-11 9-10 13-9 19-3 9-3 14-1 9v42l4 23 6 16 8 15 9 11 10 8 14 7 12 3h22l10-2 12-5 11-7 11-11 10-18 6-17 3-14 2-21v-21l-3-24-5-17-4-10-9-15-9-10-9-7-12-6-12-3z" fill="#2361AA"/>
<path transform="translate(1343,352)" d="m0 0h67l5 1 1 2 1 102 1 67h16l10-2 5-4 6-10 8-22 3-1 25 12 13 7-1 7-15 45-10 29-3 7-2 1-25 1h-103l-8-1-2-4-2-16h115l14-1 14-41 6-17-9-2-2 7-7 11-6 7-9 6-7 2h-44l-1-171-51-1-14-1 2-11 3-8z" fill="#2361AA"/>
<path transform="translate(394,214)" d="m0 0h29l24 3 9 2-1 4-10 7-17 8-30 15-14 6-15 8-12 5-17 7-14 9-11 3-9 1-3 1-14-6-3 3-8 15-5 14-2 18h-1v-14l1-4h-2v-2h-5l-7 3-16 3h-4v2l-14 5-1 1-9 2-3 2h-3v2l-3 1-3-2 2-6 6-10 12-16 12-13 5-5 13-12 14-12 21-14 23-12 25-10 22-6 28-5z" fill="#7FB4F6"/>
<path transform="translate(490,342)" d="m0 0h9l10 3 19 9 19 10 130 65 3 5 1 9v22l-6-1-16-8-17-8-19-10-35-17-15-6-18-4-8-1h-17l-15 1-20-9-13-7-8-6-6-11-1-9 2-10 5-8 9-7z" fill="#2361AA"/>
<path transform="translate(147,462)" d="m0 0 10 3 48 24 37 18 19 7 21 3h16l14-2 23 11 16 9 7 8 3 8v13l-4 9-5 5-8 5-6 2h-12l-16-7-17-9-86-43-45-23-12-7-2-6-1-7z" fill="#2361AA"/>
<path transform="translate(1025,398)" d="m0 0h11l10 5 7 8 7 15 4 15 2 17v31l-3 21-5 16-6 10-8 8-10 4-11-1-8-5-8-9-6-13-4-15-2-15v-32l3-21 5-16 6-11 5-6 8-5z" fill="#2361AA"/>
<path transform="translate(1555,372)" d="m0 0h13v200l-1 1-7 1-49-1-1-3 16-8 4-6v-164l-6-9-12-8v-2z" fill="#F7FAFD"/>
<path transform="translate(799,399)" d="m0 0 10 1 13 4 13 7 9 9 8 13 5 12 3 16v22l-2 13-5 15-7 11-9 10-11 7-14 5-5 1h-7z" fill="#2361AA"/>
<path transform="translate(1332,373)" d="m0 0 12 5 9 6 6 7 4 9v146l-3 7-4 6-9 8-7 3-6 1-1-1-1-8v-9l11-9 1-71v-32l-1-38-6-7-8-6v-7l2-9z" fill="#2361AA"/>
<path transform="translate(489,281)" d="m0 0h24l15 3 12 4 29 14 35 17 30 15 4 5 6 12v4l-6-2-32-16-19-10-50-25-13-4-17-3h-22l-23 5-19 8-16 11-10 9-10 14-1-3 3-7 9-14 13-13 13-9 17-8 21-6z" fill="#2361AA"/>
<path transform="translate(470,396)" d="m0 0 4 4 5 9 10 7 30 15h11l16-1 16 1 22 6 29 14 30 15 23 11 3 3v8l-3 5-6-2-28-14-19-10-27-13-14-5-20-4h-25l-9 1-10-4-19-10-10-6-6-7-3-6-1-11z" fill="#2361AA"/>
<path transform="translate(1028,417)" d="m0 0h6l5 5 5 13 2 13 1 15v19l-2 21-5 16-5 8-5 1-6-5-6-12-3-15-1-10v-29l2-16 4-13 5-8z" fill="#F7FAFD"/>
<path transform="translate(167,525)" d="m0 0 10 4 27 13 16 8 27 14 23 11 16 8 15 8 23 11 7 3h14l14-7 4-1-4 11-8 7-10 4h-15l-23-11-120-60-11-6-4-8z" fill="#2361AA"/>
<path transform="translate(167,398)" d="m0 0 6 1 102 51 13 5 4 1h9l8-3 9-6-1 7-7 10-8 5-4 1h-12l-13-5-104-52-4-4z" fill="#2361AA"/>
<path transform="translate(398,424)" d="m0 0 5 5 8 11 16 16 12 8 2 2-1 6-8 20-2 10-5-5-7-9-9-10-11-9-10-7 1-8 6-19z" fill="#2361AA"/>
<path transform="translate(821,427)" d="m0 0 5 2 7 7 5 10 3 13 1 9v10l-2 13-4 11-7 10-7 6-3-1v-75z" fill="#F8FAFD"/>
<path transform="translate(293,307)" d="m0 0 9 3 28 13 25 13 11 9 13 13 9 13 2 4-1 9-1 3-3-1-8-12-4-5-8-7-11-9-17-10-40-20-9-3 3-10z" fill="#2361AA"/>
<path transform="translate(1232,419)" d="m0 0 3 1-1 8-4 10 6 15 6 12-1 6-8 15-5 10 6 17-1 11-2 3-4-2-5-11-3-14-2-19v-23l3-18 5-12 4-6z" fill="#F7FAFD"/>
<path transform="translate(394,484)" d="m0 0 5 2 11 9 10 9 9 12 4 7-1 13-5-4-10-13-11-11-17-12 1-5 3-6z" fill="#2361AA"/>
<path transform="translate(1217,458)" d="m0 0h1l1 16 2 5v7l4 1v7h2l7 19-1 11-2 3-4-2-5-11-3-14-2-19z" fill="#7FB4F6"/>
<path transform="translate(1635,390)" d="m0 0 2 2 1 134v48l-1 25-5 25 3 1h-4l-1-7 3-14 2-26z" fill="#7FB4F6"/>
<path transform="translate(821,427)" d="m0 0 5 2 1 2h-3l-1 9-2 16v36l1 18-1 6 2 1h-4v-75z" fill="#7FB4F6"/>
<path transform="translate(425,309)" d="m0 0 2 1-9 9-10 16-2 10-7 11-2 1 1-7 3-11 10-14 7-9z" fill="#7DB2F4"/>
<path transform="translate(1232,419)" d="m0 0 3 1-1 8-5 10-1-2h-4l-2 5-2 3 1-7 7-14z" fill="#7FB4F6"/>
<path transform="translate(1701,376)" d="m0 0 1 2h-3v2l4-1-1 12h-2l-6-11v-2z" fill="#7FB4F6"/>
<path transform="translate(1489,550)" d="m0 0 1 3 2 1v40h-1l-1-37-2-1z" fill="#7FB4F6"/>
<path transform="translate(553,606)" d="m0 0h1v10l-5 12-3 6-1-3-3-1 4-2 5-10z" fill="#7FB4F6"/>
<path transform="translate(1894,572)" d="m0 0 2 1 2 11 1 2h-5l-1-6z" fill="#7FB4F6"/>
<path transform="translate(288,315)" d="m0 0 1 3-1 2 4 1-4 1-6 11-1-2z" fill="#7FB4F6"/>
<path transform="translate(551,571)" d="m0 0 3 4 1 8-6-5v-2h2z" fill="#7FB4F6"/>
<path transform="translate(471,393)" d="m0 0 3 3 1 7-4-5-2 4v-7z" fill="#7FB4F6"/>
</svg>
